<?xml version="1.0" encoding="utf-8"?>
<!-- Generator: Adobe Illustrator 19.2.1, SVG Export Plug-In . SVG Version: 6.00 Build 0)  -->
<svg version="1.1" id="Layer_1" xmlns="http://www.w3.org/2000/svg" xmlns:xlink="http://www.w3.org/1999/xlink" x="0px" y="0px"
	 viewBox="0 0 1000 1000" enable-background="new 0 0 1000 1000" xml:space="preserve">
<rect y="0" display="none" fill="#5B2024" width="1000" height="1000"/>
<g>
	<g>
		<path display="none" fill="none" stroke="#FDFDFE" stroke-width="24" stroke-miterlimit="10" d="M876.5,422.6
			c40.4-35,63.8-76.7,63.8-121.5c0-123.6-178.3-223.8-398.2-223.8c-97.2,0-186.3,19.6-255.4,52.1c1.5,6.8,1.7,13.7,0.7,20.5
			c17.9,11.7,29.4,30.1,29.4,50.9c0,20.7-11.6,39.1-29.4,50.9c2.9,19.1-4.1,39.1-21.2,53.8c-17.1,14.7-40.5,20.7-62.8,18.2
			c-12,13.4-29.9,22.6-50.5,24.7c10.3,26.9,29.1,52,54.9,74.3c17.1,147.1,13.7,300.7-10.1,445.3c-3.1,18.7,12.2,36.1,34.1,38.7
			c206,24.7,414.9,24.7,620.9,0c21.9-2.6,37.1-20,34.1-38.7C862.8,723.3,859.5,569.8,876.5,422.6z"/>
		<path fill="none" stroke="#FDFDFE" stroke-width="24" stroke-miterlimit="10" d="M835.7,422.6c40.4-35,63.8-76.7,63.8-121.5
			c0-123.6-178.3-223.8-398.2-223.8c-81.4,0-157,13.7-220.1,37.3c6,11.1,8.1,23.4,6.2,35.4c17.9,11.7,29.4,30.1,29.4,50.9
			c0,20.7-11.6,39.1-29.4,50.9c2.9,19.1-4.1,39.1-21.2,53.8c-17.1,14.7-40.5,20.7-62.8,18.2c-13.7,15.3-35.2,25.2-59.4,25.2
			c-12.4,0-24-2.6-34.3-7.2c9.6,29.4,29.4,56.8,57.3,81c17.1,147.1,13.7,300.7-10.1,445.3c-3.1,18.7,12.2,36.1,34.1,38.7
			c206,24.7,414.9,24.7,620.9,0c21.9-2.6,37.1-20,34.1-38.7C822,723.3,818.6,569.8,835.7,422.6z"/>
		<path display="none" fill="none" stroke="#FDFDFE" stroke-width="24" stroke-miterlimit="10" d="M813.3,420.7l0.8-6.8l5.6-4.8
			c37.5-32.5,57.3-69.9,57.3-108c0-53.1-37.8-103.6-106.5-142.2c-71.6-40.2-167.2-62.4-269.2-62.4c-77.6,0-151.4,12.8-213.9,36.7
			c0.8,5.6,0.8,11.2,0,16.7c17.9,11.7,29.4,30.1,29.4,50.9c0,20.7-11.6,39.1-29.4,50.9c2.9,19.1-4.1,39.1-21.2,53.8
			c-17.1,14.7-40.5,20.7-62.8,18.2c-13.7,15.3-35.2,25.2-59.4,25.2c-2.7,0-5.4-0.1-8-0.4c9.4,21.3,25.2,41.9,47,60.7l5.6,4.8
			l0.8,6.8C206.5,569.6,203,725.2,179,870.6c-0.7,4,0.5,7.9,3.4,11.1c2.8,3.2,6.9,5.3,11.6,5.8c101.5,12.2,204.9,18.3,307.3,18.3
			s205.9-6.2,307.3-18.3c4.6-0.6,8.7-2.6,11.6-5.8c2.8-3.2,4-7.2,3.4-11.1C799.6,725.2,796.1,569.6,813.3,420.7z"/>
	</g>
	<g display="none">
		
			<ellipse display="inline" fill="#F1D7B2" stroke="#FDFDFE" stroke-width="24" stroke-miterlimit="10" cx="759.3" cy="468.1" rx="8.8" ry="7.5"/>
		
			<ellipse display="inline" fill="#F1D7B2" stroke="#FDFDFE" stroke-width="24" stroke-miterlimit="10" cx="759.3" cy="508.8" rx="8.8" ry="7.5"/>
		
			<ellipse display="inline" fill="#F1D7B2" stroke="#FDFDFE" stroke-width="24" stroke-miterlimit="10" cx="759.3" cy="549.5" rx="8.8" ry="7.5"/>
		
			<ellipse display="inline" fill="#F1D7B2" stroke="#FDFDFE" stroke-width="24" stroke-miterlimit="10" cx="759.3" cy="590.2" rx="8.8" ry="7.5"/>
		
			<ellipse display="inline" fill="#F1D7B2" stroke="#FDFDFE" stroke-width="24" stroke-miterlimit="10" cx="759.3" cy="630.8" rx="8.8" ry="7.5"/>
		
			<ellipse display="inline" fill="#F1D7B2" stroke="#FDFDFE" stroke-width="24" stroke-miterlimit="10" cx="759.3" cy="671.5" rx="8.8" ry="7.5"/>
		
			<ellipse display="inline" fill="#F1D7B2" stroke="#FDFDFE" stroke-width="24" stroke-miterlimit="10" cx="759.3" cy="712.2" rx="8.8" ry="7.5"/>
		
			<ellipse display="inline" fill="#F1D7B2" stroke="#FDFDFE" stroke-width="24" stroke-miterlimit="10" cx="759.3" cy="752.9" rx="8.8" ry="7.5"/>
		
			<ellipse display="inline" fill="#F1D7B2" stroke="#FDFDFE" stroke-width="24" stroke-miterlimit="10" cx="759.3" cy="793.6" rx="8.8" ry="7.5"/>
		
			<ellipse display="inline" fill="#F1D7B2" stroke="#FDFDFE" stroke-width="24" stroke-miterlimit="10" cx="724.1" cy="508.8" rx="8.8" ry="7.5"/>
		
			<ellipse display="inline" fill="#F1D7B2" stroke="#FDFDFE" stroke-width="24" stroke-miterlimit="10" cx="724.1" cy="549.5" rx="8.8" ry="7.5"/>
		
			<ellipse display="inline" fill="#F1D7B2" stroke="#FDFDFE" stroke-width="24" stroke-miterlimit="10" cx="724.1" cy="590.2" rx="8.8" ry="7.5"/>
		
			<ellipse display="inline" fill="#F1D7B2" stroke="#FDFDFE" stroke-width="24" stroke-miterlimit="10" cx="724.1" cy="630.8" rx="8.8" ry="7.5"/>
		
			<ellipse display="inline" fill="#F1D7B2" stroke="#FDFDFE" stroke-width="24" stroke-miterlimit="10" cx="724.1" cy="671.5" rx="8.8" ry="7.5"/>
		
			<ellipse display="inline" fill="#F1D7B2" stroke="#FDFDFE" stroke-width="24" stroke-miterlimit="10" cx="724.1" cy="712.2" rx="8.8" ry="7.5"/>
		
			<ellipse display="inline" fill="#F1D7B2" stroke="#FDFDFE" stroke-width="24" stroke-miterlimit="10" cx="724.1" cy="752.9" rx="8.8" ry="7.5"/>
		
			<ellipse display="inline" fill="#F1D7B2" stroke="#FDFDFE" stroke-width="24" stroke-miterlimit="10" cx="724.1" cy="793.6" rx="8.8" ry="7.5"/>
		
			<ellipse display="inline" fill="#F1D7B2" stroke="#FDFDFE" stroke-width="24" stroke-miterlimit="10" cx="688.8" cy="590.2" rx="8.8" ry="7.5"/>
		
			<ellipse display="inline" fill="#F1D7B2" stroke="#FDFDFE" stroke-width="24" stroke-miterlimit="10" cx="688.8" cy="630.8" rx="8.8" ry="7.5"/>
		
			<ellipse display="inline" fill="#F1D7B2" stroke="#FDFDFE" stroke-width="24" stroke-miterlimit="10" cx="688.8" cy="671.5" rx="8.8" ry="7.5"/>
		
			<ellipse display="inline" fill="#F1D7B2" stroke="#FDFDFE" stroke-width="24" stroke-miterlimit="10" cx="688.8" cy="712.2" rx="8.8" ry="7.5"/>
		
			<ellipse display="inline" fill="#F1D7B2" stroke="#FDFDFE" stroke-width="24" stroke-miterlimit="10" cx="688.8" cy="752.9" rx="8.8" ry="7.5"/>
		
			<ellipse display="inline" fill="#F1D7B2" stroke="#FDFDFE" stroke-width="24" stroke-miterlimit="10" cx="688.8" cy="793.6" rx="8.8" ry="7.5"/>
		
			<ellipse display="inline" fill="#F1D7B2" stroke="#FDFDFE" stroke-width="24" stroke-miterlimit="10" cx="653.6" cy="630.8" rx="8.8" ry="7.5"/>
		
			<ellipse display="inline" fill="#F1D7B2" stroke="#FDFDFE" stroke-width="24" stroke-miterlimit="10" cx="653.6" cy="671.5" rx="8.8" ry="7.5"/>
		
			<ellipse display="inline" fill="#F1D7B2" stroke="#FDFDFE" stroke-width="24" stroke-miterlimit="10" cx="653.6" cy="712.2" rx="8.8" ry="7.5"/>
		
			<ellipse display="inline" fill="#F1D7B2" stroke="#FDFDFE" stroke-width="24" stroke-miterlimit="10" cx="653.6" cy="752.9" rx="8.8" ry="7.5"/>
		
			<ellipse display="inline" fill="#F1D7B2" stroke="#FDFDFE" stroke-width="24" stroke-miterlimit="10" cx="653.6" cy="793.6" rx="8.8" ry="7.5"/>
		
			<ellipse display="inline" fill="#F1D7B2" stroke="#FDFDFE" stroke-width="24" stroke-miterlimit="10" cx="618.4" cy="671.5" rx="8.8" ry="7.5"/>
		
			<ellipse display="inline" fill="#F1D7B2" stroke="#FDFDFE" stroke-width="24" stroke-miterlimit="10" cx="618.4" cy="712.2" rx="8.8" ry="7.5"/>
		
			<ellipse display="inline" fill="#F1D7B2" stroke="#FDFDFE" stroke-width="24" stroke-miterlimit="10" cx="618.4" cy="752.9" rx="8.8" ry="7.5"/>
		
			<ellipse display="inline" fill="#F1D7B2" stroke="#FDFDFE" stroke-width="24" stroke-miterlimit="10" cx="618.4" cy="793.6" rx="8.8" ry="7.5"/>
		
			<ellipse display="inline" fill="#F1D7B2" stroke="#FDFDFE" stroke-width="24" stroke-miterlimit="10" cx="583.2" cy="752.9" rx="8.8" ry="7.5"/>
		
			<ellipse display="inline" fill="#F1D7B2" stroke="#FDFDFE" stroke-width="24" stroke-miterlimit="10" cx="583.2" cy="793.6" rx="8.8" ry="7.5"/>
	</g>
</g>
<text transform="matrix(1.1236 0 0 1 328.8184 481.1736)"><tspan x="0" y="0" fill="#FDFDFE" font-family="'Bakery'" font-size="182px">bread</tspan><tspan x="0" y="218.4" fill="#FDFDFE" font-family="'Bakery'" font-size="182px">player</tspan></text>
</svg>
