<svg xmlns="http://www.w3.org/2000/svg" xmlns:xlink="http://www.w3.org/1999/xlink" version="1.1" x="0px" y="0px" viewBox="0 0 80 100" enable-background="new 0 0 80 80" xml:space="preserve"><g><g><path fill="#000000" d="M39,53c-7.2,0-13-5.8-13-13s5.8-13,13-13s13,5.8,13,13S46.2,53,39,53z M39,29c-6.1,0-11,4.9-11,11    s4.9,11,11,11s11-4.9,11-11S45.1,29,39,29z"/></g><g><path fill="#000000" d="M39,42c-1.1,0-2-0.9-2-2s0.9-2,2-2s2,0.9,2,2S40.1,42,39,42z M39,40C39,40,39,40,39,40l0,1L39,40z"/></g><g><path fill="#000000" d="M39,48c-2.2,0-4.2-0.9-5.7-2.4l1.4-1.4c1.1,1.2,2.7,1.8,4.3,1.8c1.6,0,3.1-0.6,4.2-1.7l1.4,1.4    C43.1,47.2,41.1,48,39,48z"/></g><g><path fill="#000000" d="M34.7,35.8l-1.4-1.4c1.5-1.6,3.5-2.4,5.7-2.4c2.1,0,4.1,0.8,5.6,2.3l-1.4,1.4C42.1,34.6,40.6,34,39,34    C37.4,34,35.9,34.6,34.7,35.8z"/></g><g><path fill="#000000" d="M64,65H14V15h50V65z M16,63h46V17H16V63z"/></g></g><text x="0" y="95" fill="#000000" font-size="5px" font-weight="bold" font-family="'Helvetica Neue', Helvetica, Arial-Unicode, Arial, Sans-serif">Created by BraveBros.</text><text x="0" y="100" fill="#000000" font-size="5px" font-weight="bold" font-family="'Helvetica Neue', Helvetica, Arial-Unicode, Arial, Sans-serif">from the Noun Project</text></svg>