<?xml version="1.0" encoding="UTF-8" standalone="no"?>
<!-- Created with Inkscape (http://www.inkscape.org/) -->

<svg
   xmlns:dc="http://purl.org/dc/elements/1.1/"
   xmlns:cc="http://creativecommons.org/ns#"
   xmlns:rdf="http://www.w3.org/1999/02/22-rdf-syntax-ns#"
   xmlns:svg="http://www.w3.org/2000/svg"
   xmlns="http://www.w3.org/2000/svg"
   xmlns:sodipodi="http://sodipodi.sourceforge.net/DTD/sodipodi-0.dtd"
   xmlns:inkscape="http://www.inkscape.org/namespaces/inkscape"
   width="210mm"
   height="297mm"
   viewBox="0 0 744.09448819 1052.3622047"
   id="svg2"
   version="1.1"
   inkscape:version="0.91 r13725"
   sodipodi:docname="bp_logo.svg">
  <defs
     id="defs4" />
  <sodipodi:namedview
     id="base"
     pagecolor="#ffffff"
     bordercolor="#666666"
     borderopacity="1.0"
     inkscape:pageopacity="0.0"
     inkscape:pageshadow="2"
     inkscape:zoom="0.70710678"
     inkscape:cx="-7.9066969"
     inkscape:cy="803.12132"
     inkscape:document-units="px"
     inkscape:current-layer="layer2"
     showgrid="false"
     inkscape:window-width="1920"
     inkscape:window-height="1020"
     inkscape:window-x="-8"
     inkscape:window-y="-8"
     inkscape:window-maximized="1" />
  <metadata
     id="metadata7">
    <rdf:RDF>
      <cc:Work
         rdf:about="">
        <dc:format>image/svg+xml</dc:format>
        <dc:type
           rdf:resource="http://purl.org/dc/dcmitype/StillImage" />
        <dc:title></dc:title>
      </cc:Work>
    </rdf:RDF>
  </metadata>
  <g
     inkscape:groupmode="layer"
     id="layer2"
     inkscape:label="Bg"
     style="display:inline">
    <rect
       style="opacity:1;fill:#301935;fill-opacity:1;stroke:none;stroke-width:0.01;stroke-linecap:round;stroke-linejoin:round;stroke-miterlimit:4;stroke-dasharray:none;stroke-opacity:1"
       id="rect4147"
       width="320"
       height="320"
       x="-0.00390625"
       y="-0.0021925885"
       inkscape:export-xdpi="96"
       inkscape:export-ydpi="96" />
  </g>
  <g
     inkscape:groupmode="layer"
     id="layer3"
     inkscape:label="Logo"
     style="display:inline">
    <path
       style="fill:#ffffff;fill-rule:evenodd;stroke:none;stroke-width:1px;stroke-linecap:butt;stroke-linejoin:miter;stroke-opacity:1"
       d="m 175.99027,129.32945 c 0.99224,0.1984 1.93326,4.21502 0.1206,5.03042 -2.05796,0.92572 -6.94164,-0.58176 -6.65592,1.41828 0.50508,3.53554 2.27284,94.95434 2.27284,94.95434 l -25.7589,-7.3236 c 0,0 -7.82868,-18.68782 -5.05076,-32.32488 0,0 -8.002,-1.1581 -16.92006,-7.57616 0,0 -6.0482,-2.4543 -13.13198,0.50508 -3.97614,0.88358 -7.23086,13.81286 -2.27284,18.18274 4.25748,3.75242 35.60788,31.56728 34.34518,47.98226 0,0 2.27286,13.38452 -9.59644,21.71828 -11.8693,8.33376 -61.36676,-44.9518 -57.32616,-78.03428 0,0 -26.76904,-13.63706 -15.40482,-11.8693 l 18.18274,4.54568 c 0,0 5.80838,-14.89974 30.05204,-14.6472 0,0 -16.41498,-24.4962 -10.354063,-42.67896 0,0 5.555843,-16.6675 21.970823,-5.05076 16.41498,11.61676 25.2538,30.55712 26.76904,36.3655 7.1041,-2.02974 -6.7964,-37.20128 28.75868,-31.19744 z"
       id="path4166"
       inkscape:connector-curvature="0"
       sodipodi:nodetypes="csscccccscscccccscc" />
    <path
       style="fill:#301935;fill-opacity:1;fill-rule:evenodd;stroke:none;stroke-width:1px;stroke-linecap:butt;stroke-linejoin:miter;stroke-opacity:1"
       d="m 108.53009,126.18169 c -7.88308,5.85552 17.84028,51.62322 35.67102,50.0459 7.79296,-24.47738 -30.1332,-58.79556 -35.67102,-50.0459 z"
       id="path4168"
       inkscape:connector-curvature="0"
       sodipodi:nodetypes="ccc" />
    <path
       style="fill:#301935;fill-opacity:1;fill-rule:evenodd;stroke:none;stroke-width:1px;stroke-linecap:butt;stroke-linejoin:miter;stroke-opacity:1"
       d="m 109.60339,213.30735 c 0,0 6.93864,12.8734 15.9099,19.1929 6.27834,4.42256 5.80838,20.96068 12.37436,25.50636 -25.50636,-6.31346 -28.28426,-44.69926 -28.28426,-44.69926 z"
       id="path4170"
       inkscape:connector-curvature="0"
       sodipodi:nodetypes="cscc" />
    <path
       style="fill:#ffffff;fill-rule:evenodd;stroke:none;stroke-width:1px;stroke-linecap:butt;stroke-linejoin:miter;stroke-opacity:1"
       d="m 177.78867,194.11445 c 0,0 4.5457,-53.53808 -5.55582,-136.118047 0,0 21.46574,-20.20306 26.5165,21.71828 0,0 39.0176,-67.0382 60.3566,-3.78808 20.40894,60.493327 -48.2244,71.249087 -51.7703,67.175147 0,0 -15.06568,-10.2867 25.75888,-27.02158 0,0 9.84898,-46.214487 -3.03046,-57.326167 0,0 -28.28426,9.59646 -29.04188,34.59774 -0.75762,25.001267 0.3673,75.086327 -2.27284,86.368047 -3.1597,13.50188 -2.24712,16.9972 -2.27284,16.92004 0,0 -18.94038,-0.50508 -18.68784,-2.52538 z"
       id="path4172"
       inkscape:connector-curvature="0"
       sodipodi:nodetypes="cccscccsscc" />
    <path
       style="fill:#301935;fill-opacity:1;fill-rule:evenodd;stroke:none;stroke-width:1px;stroke-linecap:butt;stroke-linejoin:miter;stroke-opacity:1"
       d="m 225.26585,126.18169 c -1.53352,-1.17122 -14.94734,9.65052 -15.035,10.08884 0.111,-0.0884 10.15806,-0.1758 15.035,-10.08884 z"
       id="path4174"
       inkscape:connector-curvature="0"
       sodipodi:nodetypes="ccc" />
  </g>
</svg>
